<svg width="23" height="23" viewBox="0 0 23 23" fill="none" xmlns="http://www.w3.org/2000/svg">
<path d="M12.0411 15.7097C12.0411 16.6616 12.8156 17.436 13.7675 17.436H15.7959C16.7478 17.436 17.5223 16.6616 17.5223 15.7097V13.6812C17.5223 12.7293 16.7478 11.9549 15.7959 11.9549H13.7675C12.8156 11.9549 12.0411 12.7293 12.0411 13.6812V15.7097ZM13.7675 13.6812H15.7959L15.797 15.7096C15.797 15.7096 15.7967 15.7097 15.7959 15.7097H13.7675V13.6812Z" fill="black" fill-opacity="0.3"/>
<path d="M16.6591 9.92646C17.1358 9.92646 17.5222 9.54 17.5222 9.06329C17.5222 8.58657 17.1358 8.20012 16.6591 8.20012C16.1824 8.20012 15.7959 8.58657 15.7959 9.06329C15.7959 9.54 16.1824 9.92646 16.6591 9.92646Z" fill="black" fill-opacity="0.3"/>
<path d="M12.9043 9.92646C13.381 9.92646 13.7675 9.54 13.7675 9.06329C13.7675 8.58657 13.381 8.20012 12.9043 8.20012C12.4276 8.20012 12.0411 8.58657 12.0411 9.06329C12.0411 9.54 12.4276 9.92646 12.9043 9.92646Z" fill="black" fill-opacity="0.3"/>
<path d="M21.234 15.1918C21.7107 15.1918 22.0971 14.8053 22.0971 14.3286V5.17901C22.0971 3.27521 20.5483 1.72634 18.6445 1.72634H17.5223V0.863169C17.5223 0.386441 17.1359 0 16.6592 0C16.1824 0 15.796 0.386441 15.796 0.863169V1.72634H11.8686V0.863169C11.8686 0.386441 11.4821 0 11.0054 0C10.5287 0 10.1422 0.386441 10.1422 0.863169V1.72634H6.25798V0.863169C6.25798 0.386441 5.87153 0 5.39481 0C4.91808 0 4.53164 0.386441 4.53164 0.863169V1.72634H3.45268C1.54887 1.72634 0 3.27521 0 5.17901V18.6445C0 20.5483 1.54887 22.0971 3.45268 22.0971H18.6445C20.5483 22.0971 22.0971 20.5483 22.0971 18.6445C22.0971 18.1677 21.7107 17.7813 21.234 17.7813C20.7572 17.7813 20.3708 18.1677 20.3708 18.6445C20.3708 19.5964 19.5964 20.3708 18.6445 20.3708H3.45268C2.50077 20.3708 1.72634 19.5964 1.72634 18.6445V5.17901C1.72634 4.22711 2.50077 3.45268 3.45268 3.45268H4.53164V4.31585C4.53164 4.79257 4.91808 5.17901 5.39481 5.17901C5.87153 5.17901 6.25798 4.79257 6.25798 4.31585V3.45268H10.1422V4.31585C10.1422 4.79257 10.5287 5.17901 11.0054 5.17901C11.4821 5.17901 11.8686 4.79257 11.8686 4.31585V3.45268H15.796V4.31585C15.796 4.79257 16.1824 5.17901 16.6592 5.17901C17.1359 5.17901 17.5223 4.79257 17.5223 4.31585V3.45268H18.6445C19.5964 3.45268 20.3708 4.22711 20.3708 5.17901V14.3286C20.3708 14.8053 20.7572 15.1918 21.234 15.1918Z" fill="black" fill-opacity="0.3"/>
<path d="M5.39479 17.436C5.8715 17.436 6.25795 17.0496 6.25795 16.5729C6.25795 16.0961 5.8715 15.7097 5.39479 15.7097C4.91807 15.7097 4.53162 16.0961 4.53162 16.5729C4.53162 17.0496 4.91807 17.436 5.39479 17.436Z" fill="black" fill-opacity="0.3"/>
<path d="M5.39479 9.92646C5.8715 9.92646 6.25795 9.54 6.25795 9.06329C6.25795 8.58657 5.8715 8.20012 5.39479 8.20012C4.91807 8.20012 4.53162 8.58657 4.53162 9.06329C4.53162 9.54 4.91807 9.92646 5.39479 9.92646Z" fill="black" fill-opacity="0.3"/>
<path d="M5.39479 13.6812C5.8715 13.6812 6.25795 13.2948 6.25795 12.8181C6.25795 12.3413 5.8715 11.9549 5.39479 11.9549C4.91807 11.9549 4.53162 12.3413 4.53162 12.8181C4.53162 13.2948 4.91807 13.6812 5.39479 13.6812Z" fill="black" fill-opacity="0.3"/>
<path d="M9.14955 13.6812C9.62626 13.6812 10.0127 13.2948 10.0127 12.8181C10.0127 12.3413 9.62626 11.9549 9.14955 11.9549C8.67283 11.9549 8.28638 12.3413 8.28638 12.8181C8.28638 13.2948 8.67283 13.6812 9.14955 13.6812Z" fill="black" fill-opacity="0.3"/>
<path d="M9.14955 9.92646C9.62626 9.92646 10.0127 9.54 10.0127 9.06329C10.0127 8.58657 9.62626 8.20012 9.14955 8.20012C8.67283 8.20012 8.28638 8.58657 8.28638 9.06329C8.28638 9.54 8.67283 9.92646 9.14955 9.92646Z" fill="black" fill-opacity="0.3"/>
<path d="M9.14955 17.436C9.62626 17.436 10.0127 17.0496 10.0127 16.5729C10.0127 16.0961 9.62626 15.7097 9.14955 15.7097C8.67283 15.7097 8.28638 16.0961 8.28638 16.5729C8.28638 17.0496 8.67283 17.436 9.14955 17.436Z" fill="black" fill-opacity="0.3"/>
</svg>
