<svg width="23" height="23" viewBox="0 0 23 23" fill="none" xmlns="http://www.w3.org/2000/svg">
<path d="M19.784 16.4296C19.4015 16.1451 18.8608 16.2245 18.5763 16.6069C18.4198 16.8173 18.2523 17.0236 18.0785 17.2202C17.7628 17.5774 17.7964 18.1229 18.1535 18.4386C18.3178 18.5838 18.5217 18.6551 18.7249 18.6551C18.9636 18.6551 19.2013 18.5566 19.3719 18.3636C19.5777 18.1308 19.776 17.8865 19.9614 17.6373C20.2459 17.2549 20.1665 16.7141 19.784 16.4296Z" fill="black" fill-opacity="0.3"/>
<path d="M21.2276 12.3816C20.7621 12.2802 20.302 12.5756 20.2006 13.0414C20.1448 13.2976 20.0774 13.5543 20.0001 13.8045C19.8594 14.2599 20.1145 14.7432 20.57 14.884C20.6549 14.9102 20.7407 14.9226 20.8251 14.9226C21.1937 14.9226 21.535 14.6847 21.6495 14.314C21.7413 14.0172 21.8213 13.7125 21.8875 13.4086C21.9889 12.9428 21.6935 12.483 21.2276 12.3816Z" fill="black" fill-opacity="0.3"/>
<path d="M15.6293 19.194C15.4002 19.322 15.1629 19.4415 14.9241 19.5494C14.4897 19.7456 14.2965 20.2568 14.4927 20.6913C14.6369 21.0105 14.951 21.1994 15.2799 21.1994C15.3987 21.1994 15.5194 21.1747 15.6347 21.1227C15.9179 20.9948 16.1992 20.853 16.4709 20.7013C16.8872 20.4689 17.0362 19.9431 16.8038 19.5269C16.5715 19.1107 16.0456 18.9617 15.6293 19.194Z" fill="black" fill-opacity="0.3"/>
<path d="M10.1855 4.14321V10.691L7.02026 13.8562C6.68319 14.1933 6.68319 14.7398 7.02026 15.0769C7.18883 15.2455 7.40968 15.3297 7.63065 15.3297C7.85153 15.3297 8.07246 15.2454 8.24104 15.0769L11.659 11.6589C11.8209 11.4971 11.9118 11.2775 11.9118 11.0486V4.14321C11.9118 3.66649 11.5254 3.28004 11.0486 3.28004C10.5719 3.28004 10.1855 3.66649 10.1855 4.14321Z" fill="black" fill-opacity="0.3"/>
<path d="M21.234 1.85581C20.7572 1.85581 20.3708 2.24225 20.3708 2.71898V5.11583C18.3617 1.96492 14.853 0 11.0486 0C8.09739 0 5.32286 1.14927 3.23602 3.23602C1.14927 5.32286 0 8.09739 0 11.0486C0 13.9997 1.14927 16.7743 3.23602 18.8611C5.32286 20.9479 8.09739 22.0971 11.0486 22.0971C11.0559 22.0971 11.0629 22.0962 11.0701 22.096C11.0774 22.0962 11.0844 22.0971 11.0917 22.0971C11.4028 22.0971 11.717 22.084 12.0255 22.0582C12.5006 22.0184 12.8534 21.6011 12.8137 21.126C12.7739 20.651 12.3571 20.2979 11.8815 20.3379C11.6206 20.3597 11.3549 20.3708 11.0917 20.3708C11.0844 20.3708 11.0774 20.3717 11.0701 20.3719C11.0629 20.3717 11.0559 20.3708 11.0486 20.3708C5.90826 20.3708 1.72634 16.1889 1.72634 11.0486C1.72634 5.90826 5.90826 1.72634 11.0486 1.72634C14.3613 1.72634 17.4083 3.49208 19.0733 6.30113H16.6999C16.2231 6.30113 15.8367 6.68757 15.8367 7.1643C15.8367 7.64103 16.2231 8.02747 16.6999 8.02747H19.335C19.8607 8.02747 20.3524 7.87974 20.7712 7.62381C20.7981 7.60845 20.824 7.59192 20.8487 7.57409C21.5999 7.07989 22.0971 6.22979 22.0971 5.26533V2.71898C22.0971 2.24225 21.7107 1.85581 21.234 1.85581Z" fill="black" fill-opacity="0.3"/>
</svg>
