<svg width="22" height="22" viewBox="0 0 22 22" fill="none" xmlns="http://www.w3.org/2000/svg">
<path d="M19.4219 15.9844C19.8965 15.9844 20.2812 15.5997 20.2812 15.125V9.06187C21.2924 8.61473 22 7.60262 22 6.42786V5.2677C22 5.1153 21.9594 4.96558 21.8825 4.83382L20.051 1.70213C19.437 0.652252 18.3 0 17.0836 0H4.9164C3.70001 0 2.56302 0.652252 1.94904 1.70213L0.117493 4.83382C0.0406189 4.96558 0 5.1153 0 5.2677V6.42786C0 7.60262 0.707642 8.61473 1.71875 9.06187V18.5625H0.859375C0.384705 18.5625 0 18.9472 0 19.4219C0 19.8965 0.384705 20.2812 0.859375 20.2812H1.71875V21.1406C1.71875 21.6153 2.10345 22 2.57812 22C3.0528 22 3.4375 21.6153 3.4375 21.1406V20.2812H18.5625V21.1406C18.5625 21.6153 18.9472 22 19.4219 22C19.8965 22 20.2812 21.6153 20.2812 21.1406V20.2812H21.1406C21.6153 20.2812 22 19.8965 22 19.4219C22 18.9472 21.6153 18.5625 21.1406 18.5625H15.6042C15.3231 17.0524 14.3148 15.7947 12.9578 15.1676C13.3958 14.6926 13.6641 14.0588 13.6641 13.3633C13.6641 11.8943 12.469 10.6992 11 10.6992C9.53101 10.6992 8.33594 11.8943 8.33594 13.3633C8.33594 14.0588 8.60416 14.6926 9.04224 15.1676C7.6852 15.7947 6.67694 17.0524 6.39563 18.5625H3.4375V9.25188C4.01724 9.13741 4.53488 8.84837 4.93335 8.44202C5.45032 8.93481 6.14906 9.23828 6.91797 9.23828C7.71054 9.23828 8.42926 8.91635 8.95042 8.39636C9.4783 8.91652 10.2022 9.23828 11 9.23828C11.7978 9.23828 12.5217 8.91652 13.0496 8.39636C13.5707 8.91635 14.2895 9.23828 15.082 9.23828C15.8509 9.23828 16.5497 8.93481 17.0667 8.44202C17.4651 8.84837 17.9828 9.13741 18.5625 9.25188V15.125C18.5625 15.5997 18.9472 15.9844 19.4219 15.9844ZM11 12.418C11.5213 12.418 11.9453 12.8419 11.9453 13.3633C11.9453 13.8846 11.5213 14.3086 11 14.3086C10.4787 14.3086 10.0547 13.8846 10.0547 13.3633C10.0547 12.8419 10.4787 12.418 11 12.418ZM11 16.457C12.3361 16.457 13.468 17.3454 13.8374 18.5625H8.16255C8.53198 17.3454 9.66394 16.457 11 16.457ZM3.4328 2.5699C3.73979 2.04488 4.30829 1.71875 4.9164 1.71875H17.0836C17.6917 1.71875 18.2602 2.04488 18.5672 2.5699L19.6275 4.38281H2.37251L3.4328 2.5699ZM4.03906 6.42786C4.03906 7.06769 3.51857 7.58801 2.87891 7.58801C2.23924 7.58801 1.71875 7.06769 1.71875 6.42786V6.10156H4.03906V6.42786ZM8.07812 6.35938C8.07812 6.99904 7.55763 7.51953 6.91797 7.51953C6.27831 7.51953 5.75781 6.99904 5.75781 6.35938V6.10156H8.07812V6.35938ZM11 7.51953C10.3367 7.51953 9.79688 6.97974 9.79688 6.31641V6.10156H12.2031V6.31641C12.2031 6.97974 11.6633 7.51953 11 7.51953ZM15.082 7.51953C14.4424 7.51953 13.9219 6.99904 13.9219 6.35938V6.10156H16.2422V6.35938C16.2422 6.99904 15.7217 7.51953 15.082 7.51953ZM17.9609 6.42786C17.9609 6.42014 17.9599 6.41275 17.9598 6.40503C17.9599 6.38976 17.9609 6.37465 17.9609 6.35938V6.10156H20.2812V6.42786C20.2812 7.06769 19.7608 7.58801 19.1211 7.58801C18.4814 7.58801 17.9609 7.06752 17.9609 6.42786Z" fill="black" fill-opacity="0.3"/>
</svg>
