<svg width="22" height="22" viewBox="0 0 22 22" fill="none" xmlns="http://www.w3.org/2000/svg">
<path d="M16.0273 8.58862C14.6057 8.58862 13.4492 7.43198 13.4492 6.01048C13.4492 4.5888 14.6057 3.43233 16.0273 3.43233C17.449 3.43233 18.6055 4.5888 18.6055 6.01048C18.6055 6.48515 18.2208 6.86986 17.7461 6.86986C17.2714 6.86986 16.8867 6.48515 16.8867 6.01048C16.8867 5.53664 16.5012 5.15109 16.0273 5.15109C15.5535 5.15109 15.168 5.53664 15.168 6.01048C15.168 6.48431 15.5535 6.86986 16.0273 6.86986C16.502 6.86986 16.8867 7.25456 16.8867 7.72924C16.8867 8.20391 16.502 8.58862 16.0273 8.58862ZM22 13.0629V19.3994C22 20.2581 21.5757 21.0612 20.8649 21.5477C20.1705 22.0228 19.2923 22.1296 18.5113 21.8347L15.2727 20.7667C15.262 20.7631 15.2516 20.7594 15.2411 20.7556C14.6569 20.5372 14.0288 20.5046 13.425 20.6614L8.92592 21.829C8.4865 21.9429 8.03381 22 7.58113 22C7.14725 22 6.71336 21.9476 6.29089 21.8426L2.60884 20.928C1.07271 20.5463 0 19.1744 0 17.5918V2.57849C0 1.72414 0.421631 0.927202 1.1281 0.446654C1.82785 -0.0293627 2.71391 -0.131414 3.50296 0.171887L6.70833 1.25501C6.71924 1.2587 6.72998 1.26256 6.74072 1.26676C7.23285 1.45525 7.76828 1.51182 8.28894 1.43041C8.75807 1.35689 9.19749 1.67765 9.27084 2.14662C9.34436 2.61542 9.02361 3.05518 8.55481 3.12853C7.74377 3.25559 6.91008 3.16881 6.14252 2.8781L2.9343 1.79397C2.9207 1.78927 2.9071 1.7844 2.89384 1.77903C2.62495 1.67295 2.33374 1.70535 2.09473 1.86782C1.85571 2.0303 1.71875 2.28929 1.71875 2.57849V17.3691L10.6819 8.40583C10.3483 7.66898 10.1415 6.85576 10.1406 5.92504C10.1445 2.65721 12.8044 0.000346395 16.0703 0.000346395C19.3363 0.000346395 21.9961 2.65721 22 5.92319C21.9975 8.45434 20.4781 10.1184 19.0086 11.7275C18.2903 12.5144 17.5472 13.328 16.9612 14.2553C16.8036 14.5044 16.5295 14.6555 16.2348 14.6555H15.9058C15.6111 14.6555 15.337 14.5044 15.1794 14.2553C14.5933 13.328 13.8504 12.5144 13.132 11.7275C12.6013 11.1463 12.0643 10.5576 11.5943 9.92402L10.0992 11.4194L18.7998 20.1199L19.0686 20.2087C19.0827 20.2133 19.0968 20.2183 19.1107 20.2237C19.3722 20.3254 19.6579 20.291 19.8942 20.1292C20.1401 19.9608 20.2812 19.6948 20.2812 19.3994V13.0629C20.2812 12.5883 20.666 12.2036 21.1406 12.2036C21.6153 12.2036 22 12.5883 22 13.0629ZM11.8594 5.92504C11.8612 7.78698 13.0383 9.07605 14.4012 10.5686C14.9635 11.1846 15.5401 11.8158 16.0703 12.5236C16.6005 11.8158 17.1771 11.1846 17.7394 10.5686C19.1023 9.07605 20.2794 7.78698 20.2812 5.92336C20.2786 3.60589 18.3896 1.71911 16.0703 1.71911C13.751 1.71911 11.8621 3.60589 11.8594 5.92504ZM15.2067 18.9576L8.88379 12.6346L2.49135 19.0272C2.65063 19.132 2.82956 19.2117 3.02309 19.2597L6.70514 20.1745C7.29109 20.32 7.90977 20.3168 8.49422 20.1651L12.9933 18.9975C13.7248 18.8077 14.479 18.796 15.2067 18.9576Z" fill="black" fill-opacity="0.3"/>
</svg>
